<svg width="162" height="40" viewBox="0 0 162 40" fill="none" xmlns="http://www.w3.org/2000/svg">
<path d="M66.0385 20.7987H60.5665C60.5125 21.1767 60.2605 22.1307 58.7665 22.1307H58.6405C57.2545 22.1307 56.8225 21.0507 56.8225 19.9887V19.9707C56.8225 18.9087 57.2725 17.9907 58.6585 17.9907H58.8025C60.2245 17.9907 60.5125 18.8007 60.5665 19.1427H66.0385V19.1247C66.0385 17.7747 65.6965 14.7687 58.9105 14.7687H58.2625C52.3045 14.7687 51.3145 17.7207 51.3145 19.8087V20.0607C51.3145 22.2207 52.1785 25.3887 58.2805 25.3887H59.1625C65.4985 25.3887 66.0385 22.3287 66.0385 20.8167V20.7987Z" fill="white"/>
<path d="M75.2824 25.3887C82.1404 25.3887 82.5544 21.9867 82.5544 20.2587V19.9707C82.5544 18.2427 82.1404 14.7687 75.3004 14.7687H74.6524C68.0464 14.7687 67.4164 18.2427 67.4164 19.9887V20.2407C67.4164 21.9867 68.0464 25.3887 74.6704 25.3887H75.2824ZM74.9224 22.1487C73.2844 22.1487 72.9244 20.9067 72.9244 20.0427C72.9244 19.1067 73.3384 17.9727 74.9224 17.9727H75.0304C76.6144 17.9727 77.0464 19.1067 77.0464 20.0427C77.0464 20.8527 76.6144 22.1487 75.0304 22.1487H74.9224Z" fill="white"/>
<path d="M84.4795 25.1187H89.7355V20.3847C89.7355 19.2327 90.3115 18.4947 91.5535 18.4947C92.8675 18.4947 93.3355 19.1967 93.3355 20.1867V25.1187H98.6095V18.6207C98.6095 16.6227 97.3675 14.7507 94.2895 14.7507H94.1095C91.6075 14.7507 90.3115 15.9027 89.6995 16.6047V15.0387H84.4795V25.1187Z" fill="white"/>
<path d="M107.446 25.3527C113.44 25.3527 114.232 23.6607 114.232 22.0227V21.8247C114.232 20.0787 113.386 18.8907 109.156 18.6927L107.392 18.6207C106.24 18.5667 105.898 18.3867 105.898 18.0267C105.898 17.6127 106.168 17.4327 107.194 17.4327H107.302C108.436 17.4327 108.616 17.8827 108.67 18.1347H114.106V18.1167C114.106 16.3887 113.044 14.8407 107.464 14.8407H107.086C101.92 14.8407 100.606 16.0827 100.606 17.7567V17.8647C100.606 19.3587 101.254 20.9607 105.484 21.1587L107.194 21.2847C108.418 21.3567 108.742 21.5187 108.742 21.8967C108.742 22.2567 108.454 22.5087 107.356 22.5087H107.32C106.186 22.5087 105.952 22.0407 105.952 21.7707H100.336V21.7887C100.336 23.1207 100.714 25.3527 106.906 25.3527H107.446Z" fill="white"/>
<path d="M123.175 17.4507C124.687 17.4507 125.119 18.0447 125.173 18.8367H121.159C121.357 17.9007 121.897 17.4507 123.175 17.4507ZM125.155 21.7527C125.065 21.8967 124.759 22.4187 123.391 22.4187C121.969 22.4187 121.339 21.9507 121.123 20.9247H130.735V20.5107C130.735 17.5767 129.619 14.7687 123.499 14.7687H122.671C116.857 14.7687 115.651 17.6487 115.651 19.9527V20.2047C115.651 22.3467 116.749 25.3887 122.797 25.3887H123.679C129.655 25.3887 130.609 23.1387 130.699 21.7527H125.155Z" fill="white"/>
<path d="M137.9 25.1187V20.0067C137.9 18.9447 138.26 18.5127 139.052 18.5127C139.826 18.5127 140.15 18.9627 140.15 19.9167V20.5827H145.298C145.352 20.2407 145.37 19.7547 145.37 18.9627C145.37 17.0187 144.74 14.8047 141.734 14.8047H141.554C139.268 14.8047 138.188 16.1187 137.864 16.6767V15.0387H132.644V25.1187H137.9Z" fill="white"/>
<path d="M150.437 25.1187H157.295L161.615 15.0387H156.071L153.965 21.2487L151.841 15.0387H145.955L150.437 25.1187Z" fill="white"/>
<path d="M30.6782 2.8823C27.2793 0.922491 23.3758 0.0144037 19.4609 0.272833C15.546 0.531262 11.7956 1.94459 8.68392 4.33417C5.57219 6.72376 3.23883 9.98231 1.97878 13.6979C0.718728 17.4134 0.5886 21.4191 1.60482 25.2086C2.62103 28.9981 4.73795 32.4012 7.68801 34.9877C10.6381 37.5743 14.2888 39.2281 18.1786 39.7401C22.0684 40.2521 26.0228 39.5993 29.5416 37.8642C33.0605 36.1292 35.986 33.3897 37.9482 29.9923C40.5783 25.433 41.29 20.0158 39.9267 14.932C38.5633 9.84808 35.2366 5.51382 30.6782 2.8823ZM22.2982 30.0223L17.8282 22.2823L13.6082 29.5823L8.55819 20.8323H16.9882L12.6182 13.2523H31.9782L22.2982 30.0223Z" fill="white"/>
<path d="M23.3688 16.9622C23.6143 17.1029 23.8959 17.1678 24.1782 17.1484C24.4604 17.1291 24.7306 17.0264 24.9545 16.8535C25.1784 16.6805 25.346 16.445 25.436 16.1768C25.5261 15.9086 25.5345 15.6197 25.4603 15.3467C25.3861 15.0737 25.2326 14.8288 25.0192 14.6431C24.8058 14.4573 24.542 14.3391 24.2614 14.3033C23.9807 14.2674 23.6958 14.3157 23.4426 14.4419C23.1894 14.5681 22.9793 14.7665 22.8389 15.0122C22.6509 15.3411 22.6011 15.7312 22.7005 16.0968C22.7998 16.4624 23.0402 16.7736 23.3688 16.9622Z" fill="white"/>
</svg>
